<svg xmlns="http://www.w3.org/2000/svg" width="32" height="32" fill="#000000" viewBox="0 0 256 256">
    <svg id="check" viewBox="0 0 256 256" fill="currentColor"><path d="M228.24,76.24l-128,128a6,6,0,0,1-8.48,0l-56-56a6,6,0,0,1,8.48-8.48L96,191.51,219.76,67.76a6,6,0,0,1,8.48,8.48Z"></path></svg>
    <svg id="text-t" viewBox="0 0 256 256" fill="currentColor"><path d="M206,56V88a6,6,0,0,1-12,0V62H134V194h26a6,6,0,0,1,0,12H96a6,6,0,0,1,0-12h26V62H62V88a6,6,0,0,1-12,0V56a6,6,0,0,1,6-6H200A6,6,0,0,1,206,56Z"></path></svg>
    <svg id="caret-down" viewBox="0 0 256 256" fill="currentColor"><path d="M212.24,100.24l-80,80a6,6,0,0,1-8.48,0l-80-80a6,6,0,0,1,8.48-8.48L128,167.51l75.76-75.75a6,6,0,0,1,8.48,8.48Z"></path></svg>
    <svg id="paint-brush" viewBox="0 0 256 256" fill="currentColor"><path d="M224,26c-20.8,0-44.11,11.41-69.3,33.9C136.62,76.06,121,94.9,110.3,109A58,58,0,0,0,34,164c0,32.07-20.43,46.39-21.35,47A6,6,0,0,0,16,222H92a58,58,0,0,0,55-76.3c14.08-10.67,32.92-26.32,49.08-44.4C218.59,76.11,230,52.8,230,32A6,6,0,0,0,224,26ZM92,210H30.65C37.92,200.85,46,185.78,46,164a46,46,0,1,1,46,46Zm29.49-95.91c3.6-4.67,7.88-10,12.71-15.69a78.17,78.17,0,0,1,23.4,23.4c-5.67,4.83-11,9.11-15.69,12.71A58.38,58.38,0,0,0,121.49,114.09Zm45.2-.3a90.24,90.24,0,0,0-24.48-24.48C163.05,66.46,191,42,217.56,38.44,214,65,189.54,93,166.69,113.79Z"></path></svg>
    <svg id="x" viewBox="0 0 256 256" fill="currentColor"><path d="M204.24,195.76a6,6,0,1,1-8.48,8.48L128,136.49,60.24,204.24a6,6,0,0,1-8.48-8.48L119.51,128,51.76,60.24a6,6,0,0,1,8.48-8.48L128,119.51l67.76-67.75a6,6,0,0,1,8.48,8.48L136.49,128Z"></path></svg>
    <svg id="at" viewBox="0 0 256 256" fill="currentColor"><path d="M128,26a102,102,0,0,0,0,204c21.13,0,43.31-6.35,59.32-17a6,6,0,0,0-6.65-10c-13.9,9.25-34.09,15-52.67,15a90,90,0,1,1,90-90c0,29.58-13.78,34-22,34s-22-4.42-22-34V88a6,6,0,0,0-12,0v9a46,46,0,1,0,4.34,56.32C171.76,166.6,182,174,196,174c21.29,0,34-17.2,34-46A102.12,102.12,0,0,0,128,26Zm0,136a34,34,0,1,1,34-34A34,34,0,0,1,128,162Z"></path></svg>
    <svg id="columns" viewBox="0 0 256 256" fill="currentColor"><path d="M104,34H64A14,14,0,0,0,50,48V208a14,14,0,0,0,14,14h40a14,14,0,0,0,14-14V48A14,14,0,0,0,104,34Zm2,174a2,2,0,0,1-2,2H64a2,2,0,0,1-2-2V48a2,2,0,0,1,2-2h40a2,2,0,0,1,2,2ZM192,34H152a14,14,0,0,0-14,14V208a14,14,0,0,0,14,14h40a14,14,0,0,0,14-14V48A14,14,0,0,0,192,34Zm2,174a2,2,0,0,1-2,2H152a2,2,0,0,1-2-2V48a2,2,0,0,1,2-2h40a2,2,0,0,1,2,2Z"></path></svg>
    <svg id="split-horizontal" viewBox="0 0 256 256" fill="currentColor"><path d="M110,48V208a6,6,0,0,1-12,0V134H38.49l21.75,21.76a6,6,0,1,1-8.48,8.48l-32-32a6,6,0,0,1,0-8.48l32-32a6,6,0,0,1,8.48,8.48L38.49,122H98V48a6,6,0,0,1,12,0Zm126.24,75.76-32-32a6,6,0,0,0-8.48,8.48L217.51,122H158V48a6,6,0,0,0-12,0V208a6,6,0,0,0,12,0V134h59.51l-21.75,21.76a6,6,0,1,0,8.48,8.48l32-32A6,6,0,0,0,236.24,123.76Z"></path></svg>
    <svg id="frame-corners" viewBox="0 0 256 256" fill="currentColor"><path d="M198,80v32a6,6,0,0,1-12,0V86H160a6,6,0,0,1,0-12h32A6,6,0,0,1,198,80ZM96,170H70V144a6,6,0,0,0-12,0v32a6,6,0,0,0,6,6H96a6,6,0,0,0,0-12ZM230,56V200a14,14,0,0,1-14,14H40a14,14,0,0,1-14-14V56A14,14,0,0,1,40,42H216A14,14,0,0,1,230,56Zm-12,0a2,2,0,0,0-2-2H40a2,2,0,0,0-2,2V200a2,2,0,0,0,2,2H216a2,2,0,0,0,2-2Z"></path></svg>
    <svg id="arrows-out-simple" viewBox="0 0 256 256" fill="currentColor"><path d="M214,48V96a6,6,0,0,1-12,0V62.48l-53.76,53.76a6,6,0,0,1-8.48-8.48L193.52,54H160a6,6,0,0,1,0-12h48A6,6,0,0,1,214,48ZM107.76,139.76,54,193.52V160a6,6,0,0,0-12,0v48a6,6,0,0,0,6,6H96a6,6,0,0,0,0-12H62.48l53.76-53.76a6,6,0,0,0-8.48-8.48Z"></path></svg>
    <svg id="arrows-out" viewBox="0 0 256 256" fill="currentColor"><path d="M214,48V96a6,6,0,0,1-12,0V62.48l-45.76,45.76a6,6,0,0,1-8.48-8.48L193.52,54H160a6,6,0,0,1,0-12h48A6,6,0,0,1,214,48ZM99.76,147.76,54,193.52V160a6,6,0,0,0-12,0v48a6,6,0,0,0,6,6H96a6,6,0,0,0,0-12H62.48l45.76-45.76a6,6,0,0,0-8.48-8.48ZM208,154a6,6,0,0,0-6,6v33.52l-45.76-45.76a6,6,0,0,0-8.48,8.48L193.52,202H160a6,6,0,0,0,0,12h48a6,6,0,0,0,6-6V160A6,6,0,0,0,208,154ZM62.48,54H96a6,6,0,0,0,0-12H48a6,6,0,0,0-6,6V96a6,6,0,0,0,12,0V62.48l45.76,45.76a6,6,0,0,0,8.48-8.48Z"></path></svg>
    <svg id="arrows-in" viewBox="0 0 256 256" fill="currentColor"><path d="M146,104V64a6,6,0,0,1,12,0V89.51l45.76-45.75a6,6,0,0,1,8.48,8.48L166.48,98H192a6,6,0,0,1,0,12H152A6,6,0,0,1,146,104Zm-42,42H64a6,6,0,0,0,0,12H89.52L43.76,203.76a6,6,0,1,0,8.48,8.48L98,166.48V192a6,6,0,0,0,12,0V152A6,6,0,0,0,104,146Zm62.48,12H192a6,6,0,0,0,0-12H152a6,6,0,0,0-6,6v40a6,6,0,0,0,12,0V166.48l45.76,45.76a6,6,0,0,0,8.48-8.48ZM104,58a6,6,0,0,0-6,6V89.51L52.24,43.76a6,6,0,0,0-8.48,8.48L89.52,98H64a6,6,0,0,0,0,12h40a6,6,0,0,0,6-6V64A6,6,0,0,0,104,58Z"></path></svg>
    <svg id="corners-out" viewBox="0 0 256 256" fill="currentColor"><path d="M214,48V88a6,6,0,0,1-12,0V54H168a6,6,0,0,1,0-12h40A6,6,0,0,1,214,48ZM88,202H54V168a6,6,0,0,0-12,0v40a6,6,0,0,0,6,6H88a6,6,0,0,0,0-12Zm120-40a6,6,0,0,0-6,6v34H168a6,6,0,0,0,0,12h40a6,6,0,0,0,6-6V168A6,6,0,0,0,208,162ZM88,42H48a6,6,0,0,0-6,6V88a6,6,0,0,0,12,0V54H88a6,6,0,0,0,0-12Z"></path></svg>
</svg>